<?xml version="1.0" encoding="UTF-8" standalone="no"?>
<!DOCTYPE svg PUBLIC "-//W3C//DTD SVG 1.1//EN" "http://www.w3.org/Graphics/SVG/1.1/DTD/svg11.dtd">
<svg width="100%" height="100%" viewBox="0 0 522 522" version="1.1" xmlns="http://www.w3.org/2000/svg" xmlns:xlink="http://www.w3.org/1999/xlink" xml:space="preserve" xmlns:serif="http://www.serif.com/" style="fill-rule:evenodd;clip-rule:evenodd;stroke-linejoin:round;stroke-miterlimit:2;">
    <g transform="matrix(1,0,0,1,0.000287455,0.014174)">
        <g transform="matrix(1,0,0,1,229.292,517.145)">
            <path d="M0,-515.287C49.148,-521.204 99.966,-513.059 144.52,-491.339C197.009,-466.278 240.518,-422.978 265.927,-370.559C291.893,-317.79 298.855,-255.973 285.836,-198.611C274.629,-148.767 248.315,-102.404 211.14,-67.248C165.195,-23.251 102.612,2.923 38.984,4.385C-5.778,5.917 -50.888,-4.664 -90.429,-25.688C-144.032,-53.813 -187.054,-101.289 -209.888,-157.399C-231.816,-210.445 -235.228,-270.871 -219.773,-326.144C-205.502,-378.286 -174.454,-425.484 -132.407,-459.317C-94.676,-489.877 -48.173,-509.579 0,-515.287" style="fill:rgb(255,211,0);fill-rule:nonzero;"/>
        </g>
        <g transform="matrix(1,0,0,1,153.76,382.092)">
            <path d="M0,-241.214C-12.879,-228.475 -20.258,-210.862 -21.372,-192.902C-32.719,-205.989 -47.06,-215.875 -61.678,-224.924C-66.343,-211.28 -71.424,-197.705 -78.873,-185.314C-61.122,-181.276 -42.047,-180.093 -25.687,-171.53C-42.813,-165.126 -60.843,-161.923 -78.804,-158.86C-71.633,-146.4 -66.203,-132.964 -61.818,-119.25C-46.92,-127.812 -32.858,-138.255 -21.163,-150.994L-21.163,-51.028C-21.163,-39.959 -18.448,-28.89 -13.505,-19.005C-1.81,4.594 23.321,20.884 49.774,21.302C95.999,21.58 142.292,21.371 188.516,21.441C207.591,21.72 226.734,14.48 240.448,1.114C254.649,-12.182 262.934,-31.396 263.073,-50.819L263.073,-189.699C263.073,-205.641 257.713,-221.583 247.897,-234.113C234.81,-251.308 213.717,-262.238 192.136,-262.516C145.286,-262.516 98.504,-262.446 51.654,-262.516C32.371,-262.934 13.436,-254.859 0,-241.214" style="fill:rgb(255,211,0);fill-rule:nonzero;"/>
        </g>
        <g transform="matrix(1,0,0,1,187.593,312.129)">
            <path d="M0,-138.671C4.525,-139.785 9.189,-140.62 13.923,-140.69C62.026,-140.69 110.13,-140.62 158.234,-140.76C170.625,-140.69 183.365,-136.931 192.624,-128.368C202.996,-119.388 208.705,-105.674 208.496,-91.96C208.356,-77.132 208.634,-62.234 208.356,-47.406C207.66,-29.725 195.964,-13.156 179.675,-6.334C158.512,2.089 134.147,-6.125 116.674,-19.213C109.573,-25.966 101.916,-33.136 91.822,-34.598C80.683,-36.825 69.962,-30.838 62.375,-23.181C48.452,-10.093 29.447,-1.81 10.164,-2.854C-8.354,-3.063 -25.687,-15.941 -31.953,-33.275C-36.617,-45.527 -34.39,-58.893 -34.946,-71.632C-34.459,-83.954 -36.478,-96.694 -32.371,-108.528C-27.358,-123.147 -14.828,-134.842 0,-138.671" style="fill:rgb(255,211,0);fill-rule:nonzero;"/>
        </g>
        <g transform="matrix(1,0,0,1,204.231,214.321)">
            <path d="M0,-15.385C-5.291,-12.67 -3.829,-3.968 2.088,-3.133C17.125,-1.531 32.231,0.279 47.268,1.323C54.229,0.974 55.065,-10.164 48.243,-11.487C35.643,-13.227 22.973,-13.992 10.373,-15.524C6.961,-15.663 3.271,-16.708 0,-15.385" style="fill:rgb(255,211,0);fill-rule:nonzero;"/>
        </g>
        <g transform="matrix(1,0,0,1,328.353,214.391)">
            <path d="M0,-15.037C-11,-13.645 -22.138,-13.227 -33.067,-11.417C-39.333,-9.05 -37.453,1.601 -30.63,1.183C-15.594,0 -0.627,-1.671 14.34,-3.272C20.257,-4.247 21.023,-13.923 15.315,-15.803C10.303,-16.638 5.151,-15.385 0,-15.037" style="fill:rgb(255,211,0);fill-rule:nonzero;"/>
        </g>
        <g transform="matrix(-0.999583,0.0288735,0.0288735,0.999583,231.229,258.987)">
            <path d="M5.647,-37.953C11.813,-36.668 17.166,-32.157 19.699,-26.449C24.821,-15.524 17.425,-1.521 5.647,0.63C-5.831,3.469 -18.089,-6.206 -18.083,-18.046C-18.855,-30.281 -6.275,-40.812 5.647,-37.953" style="fill:rgb(255,211,0);fill-rule:nonzero;"/>
        </g>
        <g transform="matrix(-0.99104,0.133568,0.133568,0.99104,327.361,255.821)">
            <path d="M9.725,-35.599C16.016,-34.27 21.561,-29.608 23.915,-23.603C28.536,-12.776 21.388,0.901 9.725,2.965C-1.699,5.769 -13.931,-3.681 -14.035,-15.398C-15.078,-27.831 -2.332,-38.54 9.725,-35.599" style="fill:rgb(255,211,0);fill-rule:nonzero;"/>
        </g>
        <g transform="matrix(1,0,0,1,153.76,381.883)">
            <path d="M0,-241.005C13.436,-254.65 32.371,-262.725 51.515,-262.516C98.365,-262.446 145.146,-262.516 191.997,-262.516C213.646,-262.168 234.67,-251.238 247.758,-234.113C257.573,-221.513 262.934,-205.641 262.934,-189.699C262.864,-143.406 262.934,-97.112 262.934,-50.819C262.864,-31.396 254.511,-12.182 240.31,1.114C226.595,14.48 207.451,21.72 188.377,21.442C142.083,21.371 95.859,21.58 49.635,21.302C23.251,20.884 -1.949,4.594 -13.645,-19.005C-18.587,-28.89 -21.302,-39.959 -21.302,-51.027L-21.302,-150.994C-32.928,-138.255 -46.99,-127.812 -61.957,-119.25C-66.343,-132.963 -71.772,-146.33 -78.943,-158.86C-60.982,-161.923 -42.952,-165.126 -25.827,-171.53C-42.187,-180.092 -61.261,-181.276 -79.012,-185.314C-71.563,-197.705 -66.482,-211.28 -61.817,-224.924C-47.199,-215.944 -32.789,-205.989 -21.511,-192.901C-20.258,-210.723 -12.879,-228.336 0,-241.005" style="fill-rule:nonzero;"/>
        </g>
        <g transform="matrix(1,0,0,1,187.593,311.921)">
            <path d="M0,-138.463C-14.897,-134.565 -27.428,-122.939 -32.371,-108.39C-36.547,-96.485 -34.459,-83.746 -34.946,-71.494C-34.459,-58.685 -36.617,-45.389 -31.953,-33.137C-25.757,-15.803 -8.423,-2.924 10.164,-2.715C29.447,-1.601 48.521,-9.885 62.375,-23.042C69.962,-30.7 80.683,-36.687 91.822,-34.459C101.916,-32.997 109.573,-25.827 116.674,-19.074C134.147,-5.986 158.512,2.158 179.675,-6.195C196.035,-12.948 207.66,-29.517 208.356,-47.269C208.634,-62.096 208.356,-76.994 208.496,-91.821C208.705,-105.466 202.996,-119.18 192.624,-128.23C183.365,-136.793 170.625,-140.552 158.234,-140.621C110.13,-140.552 62.026,-140.621 13.923,-140.552C9.259,-140.412 4.595,-139.577 0,-138.463" style="fill:rgb(255,211,0);fill-rule:nonzero;"/>
        </g>
        <g transform="matrix(1,0,0,1,204.231,214.251)">
            <path d="M0,-15.315C3.271,-16.638 6.961,-15.663 10.373,-15.523C22.973,-13.992 35.712,-13.227 48.243,-11.486C55.134,-10.164 54.229,1.044 47.268,1.323C32.162,0.349 17.125,-1.531 2.088,-3.132C-3.829,-3.898 -5.291,-12.6 0,-15.315" style="fill-rule:nonzero;"/>
        </g>
        <g transform="matrix(1,0,0,1,328.353,214.321)">
            <path d="M0,-14.967C5.082,-15.315 10.303,-16.568 15.385,-15.733C21.093,-13.853 20.328,-4.177 14.41,-3.202C-0.557,-1.601 -15.524,0.139 -30.561,1.253C-37.383,1.601 -39.263,-8.98 -32.998,-11.347C-22.068,-13.157 -10.93,-13.575 0,-14.967" style="fill-rule:nonzero;"/>
        </g>
        <g transform="matrix(-0.999583,0.0288735,0.0288735,0.999583,231.229,258.987)">
            <path d="M5.647,-37.953C-6.275,-40.812 -18.857,-30.35 -18.083,-18.046C-18.089,-6.206 -5.831,3.469 5.647,0.63C17.427,-1.451 24.821,-15.524 19.699,-26.449C17.166,-32.157 11.813,-36.668 5.647,-37.953" style="fill-rule:nonzero;"/>
        </g>
        <g transform="matrix(-0.991007,0.133812,0.133812,0.991007,327.296,255.824)">
            <path d="M9.651,-35.596C-2.407,-38.534 -15.159,-27.89 -14.113,-15.458C-13.937,-3.751 -1.763,5.776 9.651,2.899C21.313,0.832 28.458,-12.847 23.835,-23.672C21.489,-29.607 15.951,-34.198 9.651,-35.596" style="fill-rule:nonzero;"/>
        </g>
    </g>
</svg>
